<svg xmlns="http://www.w3.org/2000/svg" xmlns:xlink="http://www.w3.org/1999/xlink" width="20.632232666015625" height="18.414291381835938" viewBox="0 0 20.632232666015625 18.414291381835938" fill="none">
<path d="M5.45619 0.533856L8.71964 3.66796L11.9116 3.66796L15.176 0.53483C15.1877 0.523641 15.1996 0.51273 15.2118 0.5021C15.224 0.49147 15.2365 0.481133 15.2493 0.471092C15.262 0.46105 15.275 0.451318 15.2882 0.441895C15.3015 0.432472 15.3149 0.423367 15.3287 0.414579C15.3423 0.405775 15.3563 0.397311 15.3704 0.389187C15.3845 0.381048 15.3989 0.373249 15.4134 0.365789C15.428 0.35833 15.4427 0.351218 15.4576 0.344453C15.4725 0.337688 15.4875 0.331277 15.5028 0.325222C15.518 0.319152 15.5334 0.313452 15.5489 0.308121C15.5644 0.302791 15.5801 0.29783 15.5958 0.29324C15.6116 0.288649 15.6275 0.284429 15.6435 0.280578C15.6595 0.276743 15.6755 0.273277 15.6917 0.270182C15.7079 0.267101 15.7241 0.264398 15.7404 0.262073C15.7567 0.259747 15.7731 0.257807 15.7895 0.256252C15.8059 0.254711 15.8223 0.253549 15.8388 0.252763C15.8552 0.251993 15.8717 0.251608 15.8882 0.251608C15.9047 0.251608 15.9212 0.251993 15.9376 0.252763C15.9541 0.253549 15.9705 0.254711 15.9869 0.256252C16.0033 0.257807 16.0197 0.259747 16.036 0.262073C16.0523 0.264398 16.0685 0.267101 16.0847 0.270182C16.1008 0.273277 16.1169 0.276743 16.1329 0.280578C16.1489 0.284429 16.1648 0.288649 16.1806 0.29324C16.1963 0.29783 16.212 0.302791 16.2275 0.308121C16.243 0.313452 16.2584 0.319152 16.2736 0.325222C16.2888 0.331277 16.3039 0.337688 16.3188 0.344453C16.3337 0.351218 16.3484 0.35833 16.363 0.365789C16.3775 0.373249 16.3918 0.381048 16.406 0.389187C16.4201 0.397311 16.434 0.405775 16.4478 0.414579C16.4614 0.423367 16.4749 0.432472 16.4882 0.441895C16.5014 0.451318 16.5144 0.46105 16.5272 0.471092C16.5399 0.481133 16.5523 0.49147 16.5646 0.5021C16.5768 0.51273 16.5887 0.523641 16.6004 0.53483C16.612 0.546019 16.6234 0.557474 16.6345 0.569191C16.6455 0.580924 16.6563 0.592906 16.6667 0.605137C16.6772 0.617369 16.6873 0.629842 16.6972 0.642556C16.707 0.655256 16.7165 0.66819 16.7256 0.681356C16.7348 0.694509 16.7436 0.707873 16.7521 0.721448C16.7606 0.735022 16.7687 0.748787 16.7765 0.76274C16.7842 0.776692 16.7916 0.790826 16.7987 0.805141C16.8057 0.819441 16.8124 0.833901 16.8187 0.848517C16.825 0.863149 16.8309 0.877911 16.8365 0.892799C16.842 0.907703 16.8472 0.922727 16.852 0.937873C16.8568 0.95302 16.8612 0.968263 16.8652 0.983605C16.8692 0.998962 16.8728 1.0144 16.876 1.02992C16.8792 1.04545 16.8821 1.06103 16.8845 1.07668C16.8869 1.09233 16.8889 1.10804 16.8905 1.12379C16.8921 1.13954 16.8934 1.15532 16.8942 1.17113C16.895 1.18692 16.8954 1.20273 16.8954 1.21856C16.8954 1.23438 16.895 1.2502 16.8942 1.26601C16.8934 1.28182 16.8921 1.2976 16.8905 1.31335C16.8889 1.3291 16.8869 1.3448 16.8845 1.36044C16.8821 1.3761 16.8792 1.39169 16.876 1.40721C16.8728 1.42274 16.8692 1.43817 16.8652 1.45351C16.8612 1.46887 16.8568 1.48412 16.852 1.49927C16.8472 1.51441 16.842 1.52943 16.8365 1.54432C16.8309 1.55922 16.825 1.57398 16.8187 1.5886C16.8124 1.60322 16.8057 1.61768 16.7987 1.632C16.7916 1.6463 16.7842 1.66042 16.7765 1.67438C16.7687 1.68835 16.7606 1.70212 16.7521 1.71569C16.7436 1.72925 16.7348 1.74262 16.7256 1.75578C16.7165 1.76894 16.707 1.78187 16.6972 1.79458C16.6873 1.8073 16.6772 1.81977 16.6667 1.832C16.6563 1.84423 16.6455 1.85621 16.6345 1.86793C16.6234 1.87966 16.612 1.89112 16.6004 1.90231L14.7593 3.66796L16.8591 3.66796C16.9167 3.66796 16.9743 3.66932 17.032 3.67204C17.0895 3.67476 17.147 3.67883 17.2044 3.68425C17.2618 3.68966 17.319 3.69643 17.376 3.70457C17.4331 3.7127 17.4898 3.72214 17.5464 3.73295C17.6029 3.74375 17.6592 3.75589 17.7151 3.76932C17.771 3.78278 17.8266 3.79755 17.8818 3.8136C17.9369 3.82966 17.9917 3.84704 18.046 3.86568C18.1003 3.88432 18.1541 3.90425 18.2073 3.92543C18.2606 3.94661 18.3133 3.96905 18.3654 3.99272C18.4175 4.01639 18.469 4.04126 18.5199 4.06736C18.5707 4.09345 18.6209 4.12072 18.6703 4.14919C18.7198 4.17764 18.7685 4.20725 18.8164 4.23801C18.8644 4.26877 18.9115 4.30064 18.9578 4.33361C19.0041 4.36657 19.0495 4.40061 19.0941 4.43575C19.1387 4.47088 19.1823 4.50703 19.2251 4.5442C19.2678 4.58137 19.3096 4.61953 19.3503 4.65867C19.3911 4.69781 19.4308 4.73788 19.4696 4.7789C19.5083 4.81992 19.5459 4.86182 19.5825 4.90461C19.6191 4.9474 19.6545 4.99105 19.6889 5.03551C19.7232 5.07997 19.7564 5.1252 19.7885 5.17123C19.8205 5.21726 19.8513 5.26401 19.881 5.3115C19.9106 5.35898 19.939 5.40714 19.9662 5.45595C19.9934 5.50476 20.0193 5.55421 20.044 5.60424C20.0686 5.65428 20.0919 5.70488 20.114 5.75602C20.1361 5.80717 20.1568 5.85879 20.1763 5.91091C20.1957 5.96302 20.2138 6.01557 20.2305 6.06855C20.2472 6.12153 20.2626 6.17485 20.2766 6.22856C20.2906 6.28226 20.3033 6.33626 20.3145 6.39055C20.3257 6.44485 20.3356 6.49937 20.3441 6.55413C20.3525 6.60888 20.3596 6.66381 20.3653 6.71889C20.3709 6.77398 20.3752 6.82918 20.378 6.88447C20.3808 6.93976 20.3822 6.99507 20.3822 7.05043L20.3822 14.7818C20.3822 14.8372 20.3808 14.8925 20.378 14.9478C20.3752 15.0031 20.3709 15.0583 20.3653 15.1134C20.3596 15.1684 20.3525 15.2234 20.3441 15.2781C20.3356 15.3329 20.3257 15.3874 20.3145 15.4417C20.3033 15.496 20.2906 15.55 20.2766 15.6037C20.2626 15.6574 20.2473 15.7107 20.2305 15.7637C20.2138 15.8167 20.1957 15.8692 20.1763 15.9213C20.1568 15.9734 20.1361 16.0251 20.114 16.0762C20.0919 16.1274 20.0686 16.178 20.044 16.228C20.0193 16.278 19.9934 16.3275 19.9662 16.3763C19.939 16.4251 19.9106 16.4733 19.881 16.5207C19.8513 16.5682 19.8205 16.615 19.7885 16.661C19.7564 16.707 19.7232 16.7523 19.6889 16.7967C19.6545 16.8412 19.6191 16.8848 19.5825 16.9276C19.5459 16.9704 19.5083 17.0123 19.4696 17.0533C19.4308 17.0944 19.3911 17.1344 19.3503 17.1736C19.3096 17.2127 19.2678 17.2509 19.2251 17.2881C19.1823 17.3252 19.1387 17.3614 19.0941 17.3965C19.0495 17.4316 19.0041 17.4657 18.9578 17.4986C18.9115 17.5316 18.8644 17.5635 18.8164 17.5942C18.7685 17.625 18.7198 17.6546 18.6703 17.6831C18.6209 17.7115 18.5707 17.7388 18.5199 17.7649C18.469 17.791 18.4175 17.8159 18.3654 17.8395C18.3133 17.8632 18.2606 17.8856 18.2073 17.9068C18.1541 17.928 18.1003 17.9479 18.046 17.9665C17.9917 17.9852 17.937 18.0026 17.8818 18.0186C17.8266 18.0347 17.771 18.0495 17.7151 18.0629C17.6592 18.0764 17.6029 18.0885 17.5464 18.0993C17.4898 18.1101 17.4331 18.1196 17.376 18.1277C17.319 18.1358 17.2618 18.1426 17.2044 18.148C17.147 18.1534 17.0895 18.1575 17.032 18.1602C16.9743 18.1629 16.9167 18.1643 16.8591 18.1643L3.77315 18.1643C3.71549 18.1643 3.65786 18.1629 3.60027 18.1602C3.54268 18.1575 3.48518 18.1534 3.42781 18.148C3.37043 18.1426 3.31322 18.1358 3.2562 18.1277C3.19915 18.1196 3.14236 18.1101 3.08581 18.0993C3.02926 18.0885 2.97302 18.0764 2.9171 18.0629C2.86116 18.0495 2.8056 18.0347 2.75044 18.0186C2.69524 18.0026 2.6405 17.9852 2.58623 17.9666C2.53194 17.9479 2.47816 17.928 2.42489 17.9068C2.37161 17.8856 2.31892 17.8632 2.26679 17.8395C2.21468 17.8159 2.1632 17.791 2.11233 17.7649C2.06148 17.7388 2.01133 17.7115 1.96188 17.6831C1.91243 17.6546 1.86374 17.625 1.8158 17.5942C1.76784 17.5635 1.72071 17.5316 1.67441 17.4986C1.62809 17.4657 1.58265 17.4316 1.53809 17.3965C1.49352 17.3614 1.44987 17.3252 1.40715 17.2881C1.36442 17.2509 1.32267 17.2127 1.2819 17.1736C1.24113 17.1344 1.20139 17.0944 1.16267 17.0533C1.12394 17.0123 1.08629 16.9704 1.04971 16.9276C1.01314 16.8848 0.977678 16.8412 0.943327 16.7968C0.908977 16.7523 0.875789 16.707 0.843767 16.661C0.811729 16.615 0.780886 16.5682 0.751238 16.5207C0.721606 16.4733 0.693193 16.4251 0.665998 16.3763C0.63882 16.3275 0.612908 16.278 0.588261 16.228C0.56361 16.178 0.540251 16.1274 0.518185 16.0762C0.496119 16.0251 0.475375 15.9735 0.45595 15.9213C0.436526 15.8692 0.418445 15.8167 0.401707 15.7637C0.384968 15.7107 0.369595 15.6574 0.355586 15.6037C0.341575 15.55 0.328945 15.496 0.317696 15.4417C0.306449 15.3874 0.296595 15.3329 0.288135 15.2781C0.279675 15.2234 0.272618 15.1684 0.266965 15.1134C0.261314 15.0583 0.257074 15.0031 0.254244 14.9478C0.251415 14.8925 0.25 14.8372 0.25 14.7818L0.25 7.05043C0.25 6.99507 0.251415 6.93976 0.254244 6.88447C0.257074 6.82918 0.261314 6.77398 0.266965 6.71889C0.272616 6.66381 0.279672 6.60888 0.288132 6.55413C0.296593 6.49937 0.306447 6.44485 0.317696 6.39055C0.328945 6.33626 0.341575 6.28226 0.355586 6.22856C0.369595 6.17485 0.384968 6.12153 0.401707 6.06855C0.418443 6.01557 0.436523 5.96302 0.455948 5.91091C0.475374 5.85879 0.496119 5.80717 0.518185 5.75602C0.540248 5.70488 0.563607 5.65428 0.588259 5.60424C0.612906 5.55421 0.63882 5.50476 0.665998 5.45595C0.693193 5.40714 0.721606 5.35898 0.751238 5.3115C0.780886 5.26401 0.811729 5.21726 0.843767 5.17123C0.875789 5.1252 0.908977 5.07997 0.943327 5.03551C0.977678 4.99105 1.01314 4.9474 1.04971 4.90461C1.08629 4.86182 1.12394 4.81992 1.16267 4.7789C1.20139 4.73788 1.24113 4.69781 1.2819 4.65867C1.32267 4.61953 1.36442 4.58137 1.40715 4.5442C1.44987 4.50703 1.49352 4.47088 1.53809 4.43575C1.58265 4.40061 1.62809 4.36657 1.67441 4.33361C1.72071 4.30064 1.76784 4.26877 1.8158 4.23801C1.86374 4.20725 1.91243 4.17764 1.96188 4.14919C2.01133 4.12072 2.06148 4.09345 2.11233 4.06736C2.16318 4.04126 2.21467 4.01639 2.26679 3.99272C2.31892 3.96905 2.37161 3.94661 2.42489 3.92543C2.47816 3.90425 2.53194 3.88432 2.58623 3.86568C2.6405 3.84704 2.69524 3.82966 2.75044 3.8136C2.8056 3.79755 2.86116 3.78278 2.9171 3.76932C2.97302 3.75589 3.02926 3.74375 3.08581 3.73295C3.14236 3.72214 3.19915 3.7127 3.2562 3.70457C3.31322 3.69643 3.37043 3.68966 3.42781 3.68425C3.48518 3.67883 3.54268 3.67476 3.60027 3.67204C3.65786 3.66932 3.71549 3.66796 3.77315 3.66796L5.87194 3.66796L4.03184 1.90038C4.02019 1.88918 4.00884 1.87772 3.99778 1.866C3.98671 1.85427 3.97595 1.84229 3.96553 1.83005C3.95507 1.81782 3.94495 1.80535 3.93514 1.79264C3.92532 1.77992 3.91584 1.76699 3.90669 1.75384C3.89753 1.74068 3.88873 1.72732 3.88029 1.71374C3.87179 1.70017 3.86368 1.6864 3.85594 1.67245C3.84815 1.6585 3.84077 1.64437 3.83374 1.63007C3.82668 1.61576 3.82001 1.60129 3.81373 1.58667C3.80741 1.57206 3.80149 1.5573 3.79594 1.54242C3.7904 1.52751 3.78523 1.51249 3.78047 1.49734C3.77568 1.48221 3.77129 1.46697 3.7673 1.45161C3.76329 1.43627 3.75971 1.42083 3.7565 1.40531C3.75329 1.3898 3.75046 1.37422 3.74805 1.35856C3.74564 1.34292 3.74362 1.32722 3.74201 1.31147C3.74041 1.29574 3.7392 1.27996 3.7384 1.26415C3.7376 1.24836 3.7372 1.23255 3.7372 1.21672C3.7372 1.20091 3.7376 1.1851 3.73842 1.16929C3.73923 1.1535 3.74045 1.13773 3.74206 1.12198C3.74366 1.10624 3.74569 1.09054 3.74812 1.07489C3.75053 1.05924 3.75336 1.04367 3.75659 1.02816C3.7598 1.01264 3.76341 0.997202 3.76742 0.981861C3.77143 0.966519 3.77582 0.951276 3.78061 0.936129C3.78537 0.920999 3.79056 0.905981 3.79613 0.891077C3.80168 0.876189 3.8076 0.861435 3.81392 0.846818C3.82022 0.832202 3.8269 0.817742 3.83395 0.803443C3.84098 0.789143 3.84839 0.775016 3.85617 0.761063C3.86394 0.747111 3.87205 0.733355 3.88052 0.719794C3.88899 0.70622 3.89782 0.692856 3.90697 0.679703C3.91612 0.66655 3.92561 0.653625 3.93542 0.640925C3.94524 0.628211 3.95536 0.615738 3.96583 0.603506C3.97628 0.591275 3.98704 0.5793 3.99811 0.567583C4.00917 0.555866 4.02054 0.544411 4.0322 0.533222C4.04385 0.522033 4.05577 0.511131 4.06799 0.500515C4.08018 0.489885 4.09267 0.479547 4.1054 0.469506C4.11814 0.45948 4.13112 0.449755 4.14436 0.440332C4.15759 0.43091 4.17106 0.421797 4.18477 0.412993C4.19845 0.404205 4.21237 0.395749 4.22651 0.387625C4.24064 0.379485 4.25498 0.371686 4.26951 0.364227C4.28405 0.356767 4.29875 0.349655 4.31366 0.34289C4.32854 0.336125 4.34359 0.329715 4.35884 0.323659C4.37405 0.317604 4.38941 0.311912 4.40493 0.306581C4.42043 0.30125 4.43608 0.296282 4.45186 0.291677C4.46762 0.287087 4.4835 0.282866 4.49949 0.279015C4.51547 0.27518 4.53153 0.271714 4.54769 0.268619C4.56385 0.265538 4.58009 0.262835 4.59639 0.26051C4.61267 0.258184 4.62902 0.256244 4.64544 0.254689C4.66183 0.253133 4.67825 0.251963 4.69472 0.251178C4.71116 0.250408 4.72763 0.250015 4.74412 0.25C4.76059 0.25 4.77706 0.250385 4.79353 0.251155C4.80999 0.251925 4.82641 0.253088 4.84281 0.254643C4.85921 0.256184 4.87556 0.258117 4.89186 0.260442C4.90816 0.262752 4.92439 0.265448 4.94055 0.268528C4.95671 0.271609 4.97278 0.275067 4.98878 0.278902C5.00475 0.282753 5.02063 0.286966 5.03641 0.291541C5.05217 0.296132 5.06781 0.301092 5.08334 0.306422C5.09886 0.311738 5.11422 0.317423 5.12946 0.323478C5.14468 0.329534 5.15973 0.335936 5.17464 0.342686C5.18952 0.349451 5.20425 0.356556 5.2188 0.364C5.23334 0.37146 5.24766 0.379251 5.26181 0.387375C5.27592 0.395499 5.28984 0.403956 5.30357 0.412744C5.31725 0.421532 5.33073 0.43063 5.34398 0.440038C5.35722 0.44946 5.37022 0.459185 5.38296 0.469212C5.3957 0.479239 5.40818 0.489568 5.4204 0.500198C5.4326 0.510814 5.44454 0.521709 5.45619 0.532882L5.45619 0.533856ZM16.8591 5.6008L3.77315 5.6008C3.74994 5.6008 3.72675 5.60132 3.70358 5.60234C3.68041 5.60336 3.65727 5.6049 3.63419 5.60696C3.61107 5.60902 3.58805 5.61158 3.56507 5.61464C3.54209 5.61772 3.5192 5.6213 3.49641 5.62537C3.4736 5.62945 3.4509 5.63403 3.42833 5.63912C3.40572 5.64422 3.38329 5.64979 3.36097 5.65588C3.33865 5.66198 3.3165 5.66855 3.29451 5.67559C3.2725 5.68266 3.25067 5.6902 3.22904 5.69822C3.20738 5.70626 3.18596 5.71475 3.16473 5.72372C3.14349 5.73271 3.1225 5.74214 3.10174 5.75204C3.08095 5.76193 3.06043 5.77231 3.04014 5.78311C3.01985 5.79394 2.99984 5.8052 2.98012 5.81688C2.96037 5.82859 2.94093 5.84071 2.92177 5.85328C2.90262 5.86583 2.88376 5.87881 2.86525 5.8922C2.8467 5.90558 2.82849 5.91938 2.81063 5.93358C2.79275 5.94778 2.77524 5.96237 2.75806 5.97734C2.74089 5.99231 2.72407 6.00767 2.70765 6.02339C2.6912 6.03908 2.67516 6.05517 2.6595 6.07159C2.64383 6.08801 2.62857 6.10479 2.61373 6.12189C2.59886 6.139 2.58441 6.15641 2.57038 6.17415C2.55637 6.19188 2.54278 6.20994 2.52961 6.22828C2.51646 6.24661 2.50375 6.26523 2.49149 6.28414C2.47923 6.30305 2.46744 6.32222 2.4561 6.34165C2.44474 6.36106 2.43387 6.38075 2.42347 6.40065C2.41307 6.42056 2.40316 6.44068 2.39374 6.46104C2.38431 6.48138 2.37536 6.50193 2.36692 6.52267C2.35847 6.5434 2.35053 6.56433 2.34309 6.58541C2.33565 6.6065 2.32872 6.62777 2.32231 6.64918C2.31587 6.67058 2.30997 6.6921 2.30459 6.71375C2.29919 6.73543 2.29432 6.7572 2.28998 6.77908C2.28564 6.80093 2.28183 6.82291 2.27854 6.84494C2.27525 6.86698 2.27249 6.88909 2.27026 6.91126L2.26323 7.05043L2.26323 14.7818C2.26323 14.8041 2.26377 14.8263 2.26483 14.8486C2.2659 14.8708 2.26751 14.8931 2.26965 14.9152C2.27177 14.9374 2.27444 14.9595 2.27764 14.9816C2.28084 15.0036 2.28456 15.0256 2.2888 15.0475C2.29307 15.0694 2.29785 15.0912 2.30315 15.1129C2.30845 15.1345 2.31426 15.1561 2.32058 15.1775C2.32692 15.1989 2.33377 15.2202 2.34113 15.2414C2.34848 15.2625 2.35633 15.2834 2.3647 15.3042C2.37305 15.325 2.38191 15.3455 2.39127 15.3659C2.40061 15.3863 2.41044 15.4065 2.42076 15.4264C2.43107 15.4464 2.44186 15.4661 2.45313 15.4855C2.46439 15.505 2.4761 15.5242 2.48828 15.5432C2.50047 15.5622 2.5131 15.5808 2.52619 15.5992C2.53928 15.6176 2.55279 15.6357 2.56672 15.6535C2.58067 15.6713 2.59505 15.6887 2.60986 15.7059C2.62463 15.7231 2.63982 15.7399 2.65541 15.7564C2.67101 15.7728 2.687 15.789 2.70338 15.8048C2.71975 15.8205 2.73648 15.836 2.75361 15.851C2.77069 15.866 2.78815 15.8807 2.80598 15.895C2.82379 15.9092 2.84194 15.9231 2.86041 15.9365C2.87888 15.95 2.89768 15.9631 2.91679 15.9757C2.9359 15.9883 2.9553 16.0005 2.975 16.0123C2.99467 16.0241 3.01463 16.0354 3.03487 16.0463C3.05512 16.0572 3.0756 16.0676 3.09633 16.0776C3.11707 16.0876 3.13804 16.0971 3.15923 16.1061C3.18042 16.1152 3.20181 16.1238 3.22343 16.1319C3.24504 16.14 3.26681 16.1476 3.2888 16.1548C3.31076 16.1619 3.33289 16.1686 3.35519 16.1747C3.37746 16.1809 3.3999 16.1866 3.42247 16.1917C3.44503 16.1969 3.4677 16.2016 3.49049 16.2057C3.51328 16.2099 3.53614 16.2136 3.55912 16.2167C3.58208 16.2199 3.6051 16.2225 3.6282 16.2247L3.77315 16.2315L16.8591 16.2315C16.8823 16.2315 16.9055 16.2309 16.9286 16.2299C16.9518 16.2289 16.9749 16.2274 16.998 16.2253C17.0211 16.2232 17.0442 16.2207 17.0672 16.2176C17.0901 16.2145 17.113 16.211 17.1358 16.2069C17.1586 16.2028 17.1813 16.1982 17.2039 16.1931C17.2265 16.188 17.2489 16.1825 17.2713 16.1764C17.2936 16.1703 17.3157 16.1637 17.3377 16.1567C17.3597 16.1496 17.3815 16.142 17.4032 16.134C17.4248 16.126 17.4463 16.1175 17.4675 16.1085C17.4887 16.0996 17.5097 16.0901 17.5305 16.0802C17.5513 16.0703 17.5718 16.0599 17.5921 16.0491C17.6124 16.0383 17.6324 16.0271 17.6521 16.0154C17.6718 16.0037 17.6913 15.9915 17.7105 15.979C17.7296 15.9664 17.7484 15.9534 17.767 15.9401C17.7855 15.9267 17.8037 15.9129 17.8216 15.8987C17.8395 15.8845 17.857 15.8699 17.8742 15.8549C17.8913 15.8399 17.9081 15.8246 17.9246 15.8089C17.941 15.7932 17.9571 15.7771 17.9727 15.7607C17.9884 15.7442 18.0036 15.7275 18.0185 15.7104C18.0334 15.6933 18.0478 15.6758 18.0618 15.6581C18.0759 15.6404 18.0894 15.6223 18.1026 15.604C18.1157 15.5856 18.1285 15.567 18.1407 15.5481C18.153 15.5292 18.1648 15.51 18.1761 15.4906C18.1875 15.4712 18.1983 15.4515 18.2087 15.4316C18.2191 15.4117 18.229 15.3916 18.2385 15.3712C18.2479 15.3509 18.2569 15.3303 18.2653 15.3096C18.2737 15.2888 18.2817 15.2679 18.2891 15.2468C18.2966 15.2257 18.3035 15.2045 18.3099 15.1831C18.3164 15.1617 18.3223 15.1401 18.3276 15.1185C18.333 15.0968 18.3379 15.0751 18.3422 15.0532C18.3466 15.0313 18.3504 15.0093 18.3537 14.9873C18.357 14.9653 18.3597 14.9432 18.362 14.921L18.369 14.7818L18.369 7.05043C18.369 7.02671 18.3684 7.003 18.3672 6.97931C18.3659 6.95561 18.3641 6.93197 18.3617 6.90834C18.3593 6.88474 18.3563 6.86121 18.3527 6.83774C18.349 6.81425 18.3448 6.7909 18.34 6.76764C18.3352 6.74438 18.3297 6.72123 18.3237 6.69821C18.3177 6.6752 18.3112 6.65235 18.304 6.62963C18.2968 6.60693 18.289 6.58442 18.2807 6.56206C18.2724 6.53973 18.2635 6.5176 18.2541 6.4957C18.2446 6.47377 18.2346 6.45209 18.224 6.43064C18.2135 6.40919 18.2024 6.38802 18.1907 6.36709C18.179 6.34616 18.1669 6.32552 18.1542 6.30518C18.1415 6.28482 18.1283 6.2648 18.1145 6.24507C18.1008 6.22534 18.0866 6.20595 18.0719 6.1869C18.0571 6.16785 18.0419 6.14914 18.0263 6.1308C18.0106 6.11247 17.9944 6.09451 17.9779 6.07693C17.9612 6.05933 17.9442 6.04217 17.9268 6.02538C17.9093 6.00862 17.8914 5.99227 17.8731 5.97632C17.8548 5.9604 17.8361 5.9449 17.817 5.92986C17.7979 5.9148 17.7784 5.90021 17.7585 5.88608C17.7387 5.87195 17.7185 5.85829 17.698 5.84511C17.6774 5.83192 17.6565 5.81924 17.6353 5.80705C17.6141 5.79484 17.5926 5.78316 17.5709 5.77197C17.5491 5.7608 17.527 5.75013 17.5047 5.73998C17.4823 5.72984 17.4597 5.72023 17.4369 5.71115C17.4141 5.70207 17.391 5.69353 17.3678 5.68553C17.3445 5.67754 17.321 5.67011 17.2974 5.66322C17.2737 5.65634 17.2499 5.65002 17.226 5.64424C17.202 5.63849 17.1779 5.6333 17.1537 5.62866C17.1294 5.62404 17.1051 5.61998 17.0806 5.61649C17.0562 5.61303 17.0317 5.61013 17.0071 5.6078C16.9825 5.60546 16.9579 5.60372 16.9332 5.60254C16.9085 5.60139 16.8838 5.6008 16.8591 5.6008ZM6.28966 8.50006C6.30613 8.50006 6.3226 8.50045 6.33907 8.50124C6.35551 8.50201 6.37193 8.50317 6.38833 8.50473C6.40472 8.50627 6.42107 8.50819 6.43738 8.51053C6.45365 8.51286 6.46989 8.51556 6.48605 8.51864C6.50218 8.52174 6.51825 8.5252 6.53425 8.52903C6.55022 8.53288 6.5661 8.5371 6.58188 8.54169C6.59764 8.54629 6.61326 8.55123 6.62878 8.55655C6.64428 8.56188 6.65964 8.56758 6.67488 8.57363C6.6901 8.57968 6.70515 8.58609 6.72006 8.59286C6.73495 8.59963 6.74965 8.60672 6.76418 8.61418C6.77871 8.62163 6.79303 8.62944 6.80716 8.63757C6.8213 8.64571 6.83522 8.65415 6.84892 8.66294C6.86261 8.67173 6.87608 8.68084 6.88931 8.69026C6.90252 8.69968 6.91552 8.7094 6.92826 8.71943C6.94098 8.72947 6.95346 8.73979 6.96568 8.75042C6.97788 8.76104 6.98979 8.77194 7.00145 8.78313C7.0131 8.79432 7.02445 8.80578 7.03552 8.81749C7.04658 8.8292 7.05734 8.84118 7.06779 8.85341C7.07824 8.86562 7.08839 8.87808 7.0982 8.89078C7.10799 8.90349 7.11748 8.91642 7.12663 8.92958C7.13578 8.94274 7.14458 8.95609 7.15308 8.96965C7.16152 8.98322 7.16964 8.99697 7.17742 9.01092C7.18518 9.02487 7.19259 9.03901 7.19965 9.0533C7.20668 9.06759 7.21333 9.08205 7.21965 9.09665C7.22595 9.11126 7.23187 9.12603 7.23744 9.14091C7.24299 9.1558 7.24815 9.17081 7.25294 9.18597C7.25771 9.2011 7.2621 9.21634 7.26611 9.23167C7.27012 9.24701 7.27373 9.26243 7.27694 9.27795C7.28014 9.29346 7.28295 9.30903 7.28538 9.32468C7.28779 9.34033 7.28982 9.35603 7.29145 9.37177C7.29305 9.38751 7.29425 9.40327 7.29508 9.41906C7.29588 9.43487 7.29628 9.45068 7.29628 9.46649L7.29628 11.3993C7.29628 11.4152 7.29588 11.431 7.29508 11.4468C7.29425 11.4625 7.29305 11.4783 7.29145 11.4941C7.28982 11.5098 7.28779 11.5255 7.28538 11.5411C7.28295 11.5568 7.28014 11.5724 7.27694 11.5879C7.27373 11.6034 7.27012 11.6188 7.26611 11.6341C7.2621 11.6495 7.25771 11.6647 7.25294 11.6799C7.24815 11.695 7.24299 11.71 7.23744 11.7249C7.23187 11.7398 7.22595 11.7546 7.21965 11.7692C7.21333 11.7838 7.20668 11.7982 7.19965 11.8125C7.19259 11.8268 7.18518 11.8409 7.17742 11.8549C7.16964 11.8688 7.16152 11.8826 7.15308 11.8962C7.14458 11.9097 7.13578 11.9231 7.12663 11.9363C7.11748 11.9494 7.10799 11.9623 7.09818 11.975C7.08836 11.9877 7.07824 12.0002 7.06779 12.0124C7.05734 12.0246 7.04658 12.0366 7.03552 12.0483C7.02445 12.0601 7.0131 12.0715 7.00145 12.0827C6.98979 12.0939 6.97788 12.1048 6.96568 12.1154C6.95346 12.126 6.94098 12.1364 6.92826 12.1464C6.91552 12.1564 6.90252 12.1661 6.88931 12.1756C6.87608 12.185 6.86261 12.1941 6.84892 12.2029C6.83522 12.2117 6.8213 12.2201 6.80716 12.2283C6.79303 12.2364 6.77871 12.2442 6.76418 12.2516C6.74965 12.2591 6.73492 12.2662 6.72006 12.273C6.70515 12.2797 6.6901 12.2861 6.67488 12.2922C6.65964 12.2982 6.64428 12.3039 6.62878 12.3093C6.61326 12.3146 6.59764 12.3196 6.58188 12.3241C6.56612 12.3287 6.55024 12.333 6.53427 12.3368C6.51827 12.3406 6.50218 12.3441 6.48605 12.3472C6.46989 12.3503 6.45365 12.353 6.43738 12.3553C6.42107 12.3576 6.40472 12.3596 6.38833 12.3611C6.37193 12.3627 6.35551 12.3638 6.33907 12.3646C6.3226 12.3654 6.30613 12.3658 6.28966 12.3658C6.2732 12.3658 6.25673 12.3654 6.24028 12.3646C6.22382 12.3638 6.2074 12.3627 6.191 12.3611C6.1746 12.3596 6.15825 12.3576 6.14197 12.3553C6.12567 12.353 6.10944 12.3503 6.09328 12.3472C6.07712 12.3441 6.06105 12.3406 6.04508 12.3368C6.02909 12.333 6.01323 12.3287 5.99747 12.3241C5.98171 12.3196 5.96607 12.3146 5.95055 12.3093C5.93502 12.3039 5.91966 12.2982 5.90445 12.2922C5.88923 12.2861 5.87418 12.2797 5.85929 12.273C5.84438 12.2662 5.82968 12.2591 5.81515 12.2516C5.80062 12.2442 5.7863 12.2364 5.77216 12.2283C5.75803 12.2201 5.74411 12.2117 5.73043 12.2029C5.71672 12.1941 5.70325 12.185 5.69004 12.1756C5.6768 12.1661 5.66383 12.1564 5.65109 12.1464C5.63835 12.1364 5.62587 12.126 5.61367 12.1154C5.60145 12.1048 5.58953 12.0939 5.57788 12.0827C5.56623 12.0715 5.55488 12.0601 5.54381 12.0483C5.53275 12.0366 5.52199 12.0246 5.51156 12.0124C5.50109 12.0002 5.49096 11.9877 5.48115 11.975C5.47134 11.9623 5.46185 11.9494 5.4527 11.9363C5.44354 11.9231 5.43472 11.9097 5.42628 11.8962C5.41778 11.8826 5.40967 11.8688 5.40193 11.8549C5.39414 11.8409 5.38673 11.8268 5.3797 11.8125C5.37265 11.7982 5.36597 11.7838 5.35967 11.7692C5.35337 11.7546 5.34745 11.7398 5.34191 11.7249C5.33634 11.71 5.33117 11.695 5.32641 11.6799C5.32162 11.6647 5.31723 11.6495 5.31322 11.6341C5.30921 11.6188 5.3056 11.6034 5.30239 11.5879C5.29918 11.5724 5.29635 11.5568 5.29394 11.5411C5.29154 11.5255 5.28951 11.5098 5.28791 11.4941C5.28628 11.4783 5.28507 11.4625 5.28427 11.4468C5.28347 11.431 5.28307 11.4152 5.28307 11.3993L5.28307 9.46649C5.28307 9.45068 5.28347 9.43487 5.28427 9.41906C5.28507 9.40327 5.28628 9.38751 5.28791 9.37177C5.28951 9.35603 5.29154 9.34033 5.29397 9.32468C5.29637 9.30903 5.29918 9.29346 5.30241 9.27795C5.30562 9.26243 5.30921 9.24701 5.31322 9.23167C5.31723 9.21634 5.32162 9.2011 5.32641 9.18597C5.33117 9.17081 5.33634 9.1558 5.34191 9.14091C5.34745 9.12603 5.35337 9.11126 5.35967 9.09665C5.36597 9.08205 5.37265 9.06759 5.3797 9.0533C5.38673 9.03901 5.39414 9.02487 5.40193 9.01092C5.40967 8.99697 5.41778 8.98322 5.42628 8.96965C5.43472 8.95609 5.44354 8.94274 5.4527 8.92958C5.46185 8.91642 5.47134 8.90349 5.48115 8.89078C5.49096 8.87808 5.50109 8.86562 5.51156 8.85341C5.52199 8.84118 5.53275 8.8292 5.54381 8.81749C5.55488 8.80578 5.56623 8.79432 5.57788 8.78313C5.58953 8.77194 5.60145 8.76104 5.61367 8.75042C5.62587 8.73979 5.63835 8.72947 5.65109 8.71943C5.66383 8.7094 5.6768 8.69968 5.69004 8.69026C5.70325 8.68084 5.71672 8.67173 5.73043 8.66294C5.74411 8.65415 5.75803 8.64571 5.77216 8.63757C5.7863 8.62944 5.80062 8.62163 5.81515 8.61418C5.82968 8.60672 5.84438 8.59963 5.85929 8.59286C5.87418 8.58609 5.88923 8.57968 5.90445 8.57363C5.91966 8.56758 5.93502 8.56188 5.95055 8.55655C5.96607 8.55123 5.98171 8.54629 5.99747 8.54169C6.01323 8.5371 6.02909 8.53288 6.04508 8.52903C6.06105 8.52518 6.07712 8.52172 6.09328 8.51864C6.10944 8.51556 6.12567 8.51286 6.14197 8.51053C6.15825 8.50819 6.1746 8.50627 6.191 8.50473C6.2074 8.50317 6.22382 8.50201 6.24028 8.50124C6.25673 8.50045 6.2732 8.50006 6.28966 8.50006ZM14.3426 8.50006C14.359 8.50006 14.3755 8.50045 14.3919 8.50124C14.4084 8.50201 14.4248 8.50317 14.4412 8.50473C14.4576 8.50627 14.474 8.50819 14.4903 8.51053C14.5065 8.51286 14.5228 8.51556 14.5389 8.51864C14.5551 8.52174 14.5712 8.5252 14.5871 8.52903C14.6031 8.53288 14.619 8.5371 14.6348 8.54169C14.6505 8.54629 14.6662 8.55123 14.6817 8.55655C14.6972 8.56188 14.7125 8.56758 14.7278 8.57363C14.743 8.57968 14.758 8.58609 14.7729 8.59286C14.7878 8.59963 14.8025 8.60672 14.8171 8.61418C14.8316 8.62163 14.8459 8.62944 14.8601 8.63757C14.8742 8.64571 14.8881 8.65415 14.9018 8.66294C14.9155 8.67173 14.929 8.68084 14.9422 8.69026C14.9554 8.69968 14.9684 8.7094 14.9811 8.71943C14.9939 8.72947 15.0063 8.73979 15.0186 8.75042C15.0308 8.76104 15.0427 8.77194 15.0543 8.78313C15.066 8.79432 15.0773 8.80578 15.0884 8.81749C15.0995 8.8292 15.1102 8.84118 15.1207 8.85341C15.1311 8.86562 15.1413 8.87808 15.1511 8.89078C15.1609 8.90349 15.1704 8.91642 15.1795 8.92958C15.1887 8.94274 15.1975 8.95609 15.206 8.96965C15.2144 8.98322 15.2225 8.99697 15.2303 9.01092C15.2381 9.02487 15.2455 9.03901 15.2525 9.0533C15.2596 9.06759 15.2662 9.08205 15.2726 9.09665C15.2788 9.11126 15.2848 9.12603 15.2903 9.14091C15.2959 9.1558 15.301 9.17081 15.3058 9.18597C15.3106 9.2011 15.315 9.21634 15.319 9.23167C15.323 9.24701 15.3266 9.26243 15.3298 9.27795C15.333 9.29346 15.3359 9.30903 15.3383 9.32468C15.3407 9.34033 15.3427 9.35603 15.3443 9.37177C15.3459 9.38751 15.3472 9.40327 15.348 9.41906C15.3488 9.43487 15.3492 9.45068 15.3492 9.46649L15.3492 11.3993C15.3491 11.4151 15.3487 11.4309 15.3479 11.4467C15.347 11.4625 15.3458 11.4782 15.3442 11.494C15.3425 11.5097 15.3405 11.5254 15.3381 11.541C15.3356 11.5566 15.3328 11.5722 15.3296 11.5877C15.3263 11.6032 15.3227 11.6186 15.3187 11.6339C15.3147 11.6493 15.3103 11.6645 15.3055 11.6796C15.3007 11.6947 15.2955 11.7097 15.29 11.7246C15.2844 11.7394 15.2785 11.7542 15.2722 11.7688C15.2658 11.7833 15.2591 11.7978 15.2521 11.8121C15.245 11.8263 15.2376 11.8404 15.2299 11.8544C15.2221 11.8683 15.214 11.882 15.2055 11.8956C15.197 11.9091 15.1882 11.9225 15.179 11.9356C15.1699 11.9487 15.1604 11.9616 15.1506 11.9743C15.1408 11.987 15.1306 11.9995 15.1202 12.0117C15.1097 12.0239 15.099 12.0358 15.0879 12.0475C15.0768 12.0592 15.0655 12.0707 15.0539 12.0818C15.0422 12.093 15.0303 12.1039 15.0181 12.1145C15.0058 12.1251 14.9934 12.1354 14.9807 12.1454C14.9679 12.1554 14.955 12.1652 14.9417 12.1746C14.9285 12.184 14.9151 12.1931 14.9014 12.2018C14.8877 12.2106 14.8737 12.219 14.8596 12.2272C14.8455 12.2353 14.8312 12.2431 14.8167 12.2505C14.8021 12.258 14.7874 12.2651 14.7726 12.2718C14.7577 12.2786 14.7426 12.2849 14.7275 12.291C14.7122 12.297 14.6969 12.3027 14.6814 12.308C14.6659 12.3133 14.6503 12.3183 14.6345 12.3229C14.6188 12.3275 14.6029 12.3317 14.5869 12.3355C14.571 12.3393 14.5549 12.3428 14.5388 12.3459C14.5226 12.349 14.5064 12.3517 14.4901 12.354C14.4738 12.3563 14.4575 12.3582 14.4411 12.3598C14.4248 12.3613 14.4083 12.3625 14.3919 12.3633C14.3755 12.364 14.359 12.3644 14.3426 12.3644C14.3261 12.3644 14.3096 12.364 14.2932 12.3633C14.2768 12.3625 14.2603 12.3613 14.244 12.3598C14.2276 12.3582 14.2113 12.3563 14.195 12.354C14.1787 12.3517 14.1625 12.349 14.1463 12.3459C14.1302 12.3428 14.1141 12.3393 14.0982 12.3355C14.0822 12.3317 14.0663 12.3275 14.0506 12.3229C14.0348 12.3183 14.0192 12.3133 14.0037 12.308C13.9882 12.3027 13.9728 12.297 13.9577 12.291C13.9424 12.2849 13.9274 12.2786 13.9125 12.2718C13.8976 12.2651 13.8829 12.258 13.8684 12.2505C13.8539 12.2431 13.8396 12.2353 13.8255 12.2272C13.8113 12.219 13.7974 12.2106 13.7838 12.2018C13.77 12.1931 13.7566 12.184 13.7434 12.1746C13.7301 12.1652 13.7172 12.1554 13.7044 12.1454C13.6917 12.1354 13.6792 12.1251 13.667 12.1145C13.6548 12.1039 13.6429 12.093 13.6313 12.0818C13.6196 12.0707 13.6082 12.0592 13.5972 12.0475C13.5861 12.0358 13.5754 12.0239 13.5649 12.0117C13.5545 11.9995 13.5443 11.987 13.5345 11.9743C13.5247 11.9616 13.5152 11.9487 13.5061 11.9356C13.4969 11.9225 13.4881 11.9091 13.4796 11.8956C13.4711 11.882 13.463 11.8683 13.4553 11.8544C13.4475 11.8404 13.4401 11.8263 13.433 11.8121C13.426 11.7978 13.4193 11.7833 13.413 11.7688C13.4067 11.7542 13.4007 11.7394 13.3952 11.7246C13.3896 11.7097 13.3844 11.6947 13.3796 11.6796C13.3748 11.6645 13.3704 11.6493 13.3664 11.6339C13.3624 11.6186 13.3587 11.6032 13.3555 11.5877C13.3523 11.5722 13.3495 11.5566 13.347 11.541C13.3446 11.5254 13.3426 11.5097 13.3409 11.494C13.3393 11.4782 13.338 11.4625 13.3372 11.4467C13.3364 11.4309 13.336 11.4151 13.3359 11.3993L13.3359 9.46649C13.3359 9.45068 13.3363 9.43487 13.3372 9.41906C13.338 9.40327 13.3392 9.38751 13.3408 9.37177C13.3424 9.35603 13.3444 9.34033 13.3468 9.32468C13.3493 9.30903 13.3521 9.29346 13.3553 9.27795C13.3585 9.26243 13.3621 9.24701 13.3661 9.23167C13.3701 9.21634 13.3745 9.2011 13.3793 9.18597C13.3841 9.17081 13.3892 9.1558 13.3948 9.14091C13.4003 9.12603 13.4063 9.11126 13.4126 9.09665C13.4189 9.08205 13.4255 9.06759 13.4326 9.0533C13.4396 9.03901 13.447 9.02487 13.4548 9.01092C13.4626 8.99697 13.4707 8.98322 13.4792 8.96965C13.4876 8.95609 13.4964 8.94274 13.5056 8.92958C13.5148 8.91642 13.5242 8.90349 13.5341 8.89078C13.5439 8.87808 13.554 8.86562 13.5644 8.85341C13.5749 8.84118 13.5856 8.8292 13.5967 8.81749C13.6078 8.80578 13.6191 8.79432 13.6308 8.78313C13.6424 8.77196 13.6543 8.76104 13.6666 8.75042C13.6788 8.73979 13.6912 8.72947 13.704 8.71943C13.7167 8.7094 13.7297 8.69968 13.7429 8.69026C13.7562 8.68084 13.7696 8.67173 13.7833 8.66294C13.797 8.65415 13.8109 8.64571 13.8251 8.63757C13.8392 8.62944 13.8535 8.62163 13.868 8.61418C13.8826 8.60672 13.8973 8.59963 13.9122 8.59286C13.9271 8.58609 13.9421 8.57968 13.9573 8.57363C13.9726 8.56758 13.9879 8.56188 14.0034 8.55655C14.0189 8.55123 14.0346 8.54629 14.0503 8.54169C14.0661 8.5371 14.082 8.53288 14.098 8.52903C14.114 8.52518 14.13 8.52172 14.1462 8.51864C14.1623 8.51556 14.1785 8.51286 14.1949 8.51053C14.2111 8.50819 14.2275 8.50627 14.2439 8.50473C14.2603 8.50317 14.2767 8.50201 14.2932 8.50124C14.3096 8.50045 14.3261 8.50006 14.3426 8.50006Z" stroke="rgba(47, 135, 235, 1)" stroke-width="0.5"      fill="#2F87EB" >
</path>
</svg>
