<svg xmlns="http://www.w3.org/2000/svg" xmlns:xlink="http://www.w3.org/1999/xlink" width="17" height="17.99999237060547" viewBox="0 0 17 17.99999237060547" fill="none">
<path d="M15.7771 3.06818C16.5316 1.73864 15.6693 0 15.6693 0C13.7291 0 12.3279 1.22727 12.3279 1.22727C11.5734 0.81817 9.09432 0.81817 9.09432 0.81817C9.09432 0.81817 6.61525 0.81817 5.86075 1.22727C5.86075 1.22727 4.45953 0 2.51938 0C2.51938 0 1.65708 1.73864 2.41159 3.06818C2.41159 3.06818 0.68701 4.60229 1.33372 7.87501C1.94144 10.9504 4.78287 11.7614 6.61523 11.7614C6.61523 11.7614 5.86072 12.375 5.96852 13.3977C5.96852 13.3977 4.89066 14.0114 3.8128 13.6023C2.73494 13.1932 2.196 12.1705 2.196 12.1705C2.196 12.1705 1.11814 10.8409 0.040279 11.3523C0.040279 11.3523 -0.283077 11.6591 0.902573 12.1705C0.902573 12.1705 1.76487 13.3977 2.08822 14.1136C2.41159 14.8295 4.13616 15.4432 5.86075 15.0341L5.86075 17.3864C5.86075 17.3864 5.86075 17.5909 5.4296 17.6932C4.99845 17.7955 4.99845 18 5.21404 18L12.9746 18C13.1902 18 13.1902 17.7955 12.759 17.6932C12.3279 17.5909 12.3279 17.3864 12.3279 17.3864L12.3279 15.0341C12.3279 15.0341 12.3374 13.8075 12.3279 13.3977C12.3042 12.3702 11.5734 11.7614 11.5734 11.7614C13.4058 11.7614 16.2472 10.9503 16.8549 7.87499C17.5016 4.60229 15.7771 3.06818 15.7771 3.06818Z"   fill="#557987" >
</path>
</svg>
