<svg xmlns="http://www.w3.org/2000/svg" xmlns:xlink="http://www.w3.org/1999/xlink" viewBox="0 0 96 96" fill="none">
	<path
		d="M90 0L6 0C2.68629 0 0 2.68629 0 6L0 90C0 93.3137 2.68629 96 6 96L90 96C93.3137 96 96 93.3137 96 90L96 6C96 2.68629 93.3137 0 90 0Z"></path>
	<g mask="url(#mask-24_428)">
		<path
			d="M105.31 31.7045C109.438 24.4659 104.72 15 104.72 15C94.1062 15 86.4408 21.6818 86.4408 21.6818C82.3133 19.4545 68.7513 19.4545 68.7513 19.4545C68.7513 19.4545 55.1893 19.4545 51.0617 21.6818C51.0617 21.6818 43.3962 15 32.7825 15C32.7825 15 28.0652 24.4659 32.1928 31.7045C32.1928 31.7045 22.7583 40.0569 26.2962 57.8751C29.6208 74.6188 45.1651 79.0343 55.1892 79.0343C55.1892 79.0343 51.0616 82.375 51.6513 87.943C51.6513 87.943 45.7548 91.2843 39.8582 89.057C33.9617 86.8296 31.0134 81.2616 31.0134 81.2616C31.0134 81.2616 25.1169 74.0227 19.2204 76.807C19.2204 76.807 17.4514 78.4773 23.9376 81.2616C23.9376 81.2616 28.6549 87.943 30.4238 91.8407C32.1928 95.7384 41.6272 99.0796 51.0617 96.8523L51.0617 109.659C51.0617 109.659 51.0617 110.773 48.7031 111.33C46.3445 111.887 46.3445 113 47.5239 113L89.9787 113C91.1581 113 91.1581 111.887 88.7992 111.33C86.4408 110.773 86.4408 109.659 86.4408 109.659L86.4408 96.8523C86.4408 96.8523 86.4928 90.1742 86.4408 87.943C86.3112 82.3489 82.3133 79.0343 82.3133 79.0343C92.3376 79.0343 107.882 74.6183 111.206 57.8749C114.744 40.0569 105.31 31.7045 105.31 31.7045Z"
			fill="url(#linear_fill_24_432)"></path>
	</g>
	<defs>
		<mask id="mask-24_428" style="mask-type:alpha" maskUnits="userSpaceOnUse">
			<path fill="white"
				d="M90 0L6 0C2.68629 0 0 2.68629 0 6L0 90C0 93.3137 2.68629 96 6 96L90 96C93.3137 96 96 93.3137 96 90L96 6C96 2.68629 93.3137 0 90 0Z"></path>
		</mask>
		<linearGradient id="linear_fill_24_432" x1="91.5799560546875" y1="91.79083251953125"
			x2="-29.6529541015625" y2="-71.44677734375" gradientUnits="userSpaceOnUse">
			<stop offset="0" stop-color="#525252" />
			<stop offset="1" stop-color="#525252" stop-opacity="0.28" />
		</linearGradient>
	</defs>
</svg>
