<svg xmlns="http://www.w3.org/2000/svg" xmlns:xlink="http://www.w3.org/1999/xlink" viewBox="0 0 96 96" fill="none">
	<path
		d="M3.6 0L92.3999 0C94.3882 0 96 1.61177 96 3.6L96 92.4C96 94.3883 94.3882 96 92.3999 96L3.6 96C1.61177 96 0 94.3883 0 92.4L0 3.6C0 1.61177 1.61177 1.32047e-06 3.6 1.32047e-06L3.6 0ZM53.3658 51.0735L53.3658 43.2L19.2 43.2L19.2 51.0735L31.3977 51.0735L31.3977 86.1305L41.1082 86.1305L41.1082 51.0735L53.3658 51.0735ZM57.2371 85.2048C58.8029 86.0031 60.655 86.602 62.7929 87.0011C64.9312 87.4002 67.1845 87.6 69.5535 87.6C71.8623 87.6 74.0553 87.3803 76.1334 86.9413C78.211 86.5023 80.0328 85.7786 81.5986 84.7706C83.1645 83.7626 84.4043 82.4455 85.3177 80.8187C86.2311 79.1919 86.6879 77.181 86.6879 74.7858C86.6879 73.0494 86.4268 71.5278 85.9048 70.2203C85.3831 68.9129 84.6303 67.7502 83.6464 66.7322C82.6628 65.7142 81.4833 64.8011 80.108 63.9929C78.7327 63.1846 77.1822 62.421 75.4558 61.7025C74.1908 61.1834 73.0565 60.6794 72.0528 60.1905C71.0489 59.7017 70.1957 59.2025 69.4933 58.6937C68.7905 58.1845 68.2487 57.6458 67.8672 57.0768C67.4857 56.5082 67.2951 55.8642 67.2951 55.1457C67.2951 54.487 67.4656 53.8933 67.8069 53.3646C68.1483 52.8354 68.6298 52.3813 69.2523 52.0021C69.8748 51.6229 70.6374 51.3286 71.541 51.1189C72.4442 50.9095 73.4482 50.8047 74.5522 50.8047C75.3554 50.8047 76.2035 50.8645 77.0968 50.9841C77.9902 51.1041 78.8886 51.2887 79.7918 51.538C80.6954 51.7876 81.5738 52.1018 82.427 52.4814C83.2802 52.8606 84.068 53.2996 84.7909 53.7984L84.7909 44.8468C83.3251 44.2878 81.7242 43.8735 79.9875 43.6043C78.2512 43.3348 76.2586 43.2 74.01 43.2C71.7217 43.2 69.5535 43.4444 67.5058 43.9337C65.458 44.4225 63.6563 45.1861 62.1004 46.224C60.5444 47.2619 59.3148 48.5841 58.4116 50.1906C57.508 51.7975 57.0564 53.7186 57.0564 55.954C57.0564 58.8085 57.8844 61.2436 59.5408 63.2592C61.1971 65.2752 63.7115 66.9818 67.0841 68.379C68.4093 68.918 69.6437 69.4468 70.7882 69.9659C71.9324 70.4847 72.921 71.0238 73.7541 71.5824C74.5872 72.1414 75.2448 72.7499 75.7267 73.4086C76.2086 74.0673 76.4495 74.8158 76.4495 75.6543C76.4495 76.2731 76.2987 76.8469 75.9976 77.3756C75.6964 77.9047 75.2396 78.3637 74.6274 78.7529C74.0152 79.142 73.2525 79.4466 72.3391 79.666C71.4256 79.8857 70.3563 79.9953 69.1318 79.9953C67.0439 79.9953 64.9761 79.6313 62.9284 78.9028C60.881 78.1743 58.9837 77.0814 57.2371 75.6244L57.2371 85.2048Z"
		fill-rule="evenodd" fill="#3178C6"></path>
</svg>
